<?xml version="1.0" ?><svg viewBox="0 0 32 32" xmlns="http://www.w3.org/2000/svg"><defs><style>.cls-1{fill:#d8e1ef;}.cls-2{fill:#0593ff;}</style></defs><title/><g data-name="Box Money" id="Box_Money"><rect class="cls-1" height="20" rx="3" ry="3" width="26" x="3" y="4"/><circle class="cls-2" cx="12" cy="14" r="5"/><path class="cls-2" d="M23,10a2,2,0,0,0-1,3.72V17a1,1,0,0,0,2,0V13.72A2,2,0,0,0,23,10Z"/><path class="cls-2" d="M11,28H7a1,1,0,0,1,0-2h4a1,1,0,0,1,0,2Z"/><path class="cls-2" d="M25,28H21a1,1,0,0,1,0-2h4a1,1,0,0,1,0,2Z"/></g></svg>